<svg xmlns="http://www.w3.org/2000/svg" viewBox="0 0 1143 367" width="100%" height="100%"><g id="svgGroup" stroke-linecap="round" fill-rule="evenodd" font-size="9pt" stroke="#000" stroke-width="0.25mm" fill="none" style="stroke:#000;stroke-width:0.25mm;fill:none"><path d="M 2 273.5 L 12.5 211.5 A 151.46 151.46 0 0 1 12.691 210.378 Q 20.805 163.854 55.277 138.702 A 111.514 111.514 0 0 1 56.25 138 A 122.541 122.541 0 0 1 59.072 136.046 Q 93.806 112.711 145.969 112.012 A 239.193 239.193 0 0 1 147 112 A 304.742 304.742 0 0 1 147.83 112.001 Q 253.5 112.289 253.5 186 Q 253.5 202 249.75 214.75 A 135.655 135.655 0 0 1 249.633 215.146 Q 245.948 227.534 242.023 231.974 A 12.93 12.93 0 0 1 242 232 L 238 237 L 153 237 A 48.778 48.778 0 0 0 153.388 236.655 Q 165.255 225.986 165.495 211.596 A 35.718 35.718 0 0 0 165.5 211 A 53.369 53.369 0 0 0 165.498 210.58 Q 165.289 184 138.5 184 A 53.369 53.369 0 0 0 137.752 184.005 Q 122.7 184.216 111.684 192.947 A 43.343 43.343 0 0 0 111 193.5 A 34.841 34.841 0 0 0 109.594 194.727 Q 99.281 204.219 96 222.5 L 89.5 259 A 58.189 58.189 0 0 0 89.379 259.623 Q 88.5 264.281 88.5 268.5 A 42.069 42.069 0 0 0 88.502 268.912 Q 88.758 295 121.5 295 Q 132.218 295 140.799 288.355 A 36.221 36.221 0 0 0 141.25 288 A 43.408 43.408 0 0 0 141.656 287.671 Q 150.035 280.801 151.5 272.5 L 234.5 273.5 Q 218 367 104 367 A 298.643 298.643 0 0 1 103.189 366.999 Q 0 366.719 0 295 A 100.702 100.702 0 0 1 0.002 294.374 Q 0.063 284.641 2 273.5 Z" id="0" vector-effect="non-scaling-stroke"/><path d="M 527.5 0 L 617.5 0 L 554.5 360 L 464 360 L 487 230 L 389.5 230 L 367 360 L 276.5 360 L 340 0 L 430 0 L 403 152 L 500.5 152 L 527.5 0 Z" id="1" vector-effect="non-scaling-stroke"/><path d="M 625.5 273.5 L 636 211.5 Q 644.454 163.758 679.867 138.027 A 114.071 114.071 0 0 1 680.25 137.75 Q 715.718 112.203 774.069 112.002 A 269.097 269.097 0 0 1 775 112 A 264.258 264.258 0 0 1 775.784 112.001 Q 875.316 112.296 875.5 187.72 A 114.666 114.666 0 0 1 875.5 188 A 122.031 122.031 0 0 1 875.498 188.689 Q 875.438 199.406 873.5 212 L 867.5 247.5 L 715 247.5 L 713 259 A 88.836 88.836 0 0 0 712.908 259.56 Q 712 265.234 712 270 A 45.998 45.998 0 0 0 712.002 270.428 Q 712.252 297.303 744.032 297.499 A 75.988 75.988 0 0 0 744.5 297.5 A 37.947 37.947 0 0 0 745.154 297.494 Q 756.601 297.297 764.811 290.165 A 32.264 32.264 0 0 0 765 290 A 38.996 38.996 0 0 0 765.46 289.588 Q 773.541 282.227 775 272.5 L 858 273.5 Q 841.5 367 727.5 367 A 298.643 298.643 0 0 1 726.689 366.999 Q 623.5 366.719 623.5 295 A 100.702 100.702 0 0 1 623.502 294.374 Q 623.563 284.641 625.5 273.5 Z M 720 217 L 787.5 217 A 91.013 91.013 0 0 0 787.623 216.47 Q 789.473 208.391 789.5 201.452 A 52.743 52.743 0 0 0 789.5 201.25 A 16.267 16.267 0 0 0 789.464 200.172 Q 789.021 193.499 783.099 186.615 A 41.311 41.311 0 0 0 783 186.5 A 18.237 18.237 0 0 0 781.254 184.742 Q 774.719 179 762.25 179 A 42.408 42.408 0 0 0 761.362 179.009 Q 747.919 179.291 736.725 188.12 A 50.556 50.556 0 0 0 736.25 188.5 Q 724.677 197.857 720.137 216.43 A 81.761 81.761 0 0 0 720 217 Z" id="2" vector-effect="non-scaling-stroke"/><path d="M 1143 282 L 1129 360 L 901 360 L 964.5 0 L 1054.5 0 L 1005 282 L 1143 282 Z" id="3" vector-effect="non-scaling-stroke"/></g></svg>